<svg xmlns="http://www.w3.org/2000/svg" xmlns:xlink="http://www.w3.org/1999/xlink" version="1.1" x="0px" y="0px" viewBox="0 0 100 125" 
enable-background="new 0 0 100 100" xml:space="preserve"><path d="M50.2,4.9V14l-0.8,0.2V15h0.5v0.5h0.3v0.3c0,0-0.5,0-0.6,0c-0.1,0-0.3
,0.2-0.3,0.3c0,0.2,0,2.7,0,2.7h-0.6  c0,0,0.1,2.6,0.1,2.7c0,0.2,0.2,0.3,0.3,0.3s0.2,0,0.2,0v2.7c0,0-1,0-1.1,0c-0.2,0-0.3,0.2-0.3,0.3c0,0.2,0
,1.4,0,1.4s-1.1,0-1.3,0  c-0.2,0-0.3,0.2-0.3,0.3c0,0.2,0,0.3,0,0.3h-0.3l0.6,6.2H46l0.6,6.1H46l0.6,6.1H46l0.7,6.1H46l0.6,5.9H46l0.7,6H46l0.7,6.2H46  
l0.6,6.4c0,0-0.3,0-0.4,0c-0.1,0-0.2,0.2-0.2,0.3C46,76.6,44,95,44,95H57c0,0-2-18.4-2.1-18.6c0-0.1-0.1-0.3-0.2-0.3  
c-0.1,0-0.4,0-0.4,0l0.6-6.4h-0.7l0.7-6.2h-0.7l0.7-6h-0.6l0.6-5.9h-0.7l0.7-6.1h-0.6l0.6-6.1h-0.6l0.6-6.1h-0.5l0.6-6.2h-0.3  
c0,0,0-0.1,0-0.3c0-0.2-0.1-0.3-0.3-0.3c-0.2,0-1.3,0-1.3,0s0-1.3,0-1.4c0-0.2-0.2-0.3-0.3-0.3c-0.2,0-1.1,0-1.1,0v-2.7  
c0,0,0,0,0.2,0c0.2,0,0.3-0.2,0.3-0.3c0-0.2,0.1-2.7,0.1-2.7h-0.6c0,0,0-2.6,0-2.7c0-0.2-0.2-0.3-0.3-0.3c-0.2,0-0.6,0-0.6,0v-0.3  
h0.3V15h0.5v-0.8L50.8,14V4.9h-0.3h-0.1H50.2z"/><text x="0" y="115" fill="#ffffff" font-size="5px" font-weight="bold" font-family="'Helvetica Neue', Helvetica, Arial-Unicode, Arial, Sans-serif">Created by Lazar Nikolic</text><text x="0" y="120" fill="#ffffff" font-size="5px" font-weight="bold" font-family="'Helvetica Neue', Helvetica, Arial-Unicode, Arial, Sans-serif">from the Noun Project</text></svg>